<?xml version="1.0" encoding="UTF-8" standalone="no"?>
<svg
   width="500"
   height="500"
   viewBox="0 0 500 500"
   version="1.1"
   id="svg112"
   xmlns="http://www.w3.org/2000/svg"
   xmlns:svg="http://www.w3.org/2000/svg">
  <defs
     id="defs88" />
  <path
     d="M 250,0 A 250,250 0 0 0 0,250 250,250 0 0 0 250,500 250,250 0 0 0 500,250 250,250 0 0 0 250,0 Z M 131.07812,180 a 70.078651,70 0 0 1 59.42579,32.99609 c -6.70657,10.73588 -10.58203,23.41723 -10.58203,37.00391 0,13.56225 3.86254,26.22176 10.54687,36.94531 A 70.078651,70 0 0 1 131.07812,320 70.078651,70 0 0 1 61,250 70.078651,70 0 0 1 131.07812,180 Z M 250,180 a 70.078651,70 0 0 1 59.44531,32.96289 C 302.7262,223.7057 298.8418,236.39954 298.8418,250 c 0,13.50176 3.83151,26.10787 10.46093,36.80078 A 70.078651,70 0 0 1 250,320 70.078651,70 0 0 1 190.69727,286.80078 C 197.32669,276.10787 201.1582,263.50176 201.1582,250 c 0,-13.50272 -3.83259,-26.10933 -10.46289,-36.80273 A 70.078651,70 0 0 1 250,180 Z m 118.92188,0 A 70.078651,70 0 0 1 439,250 70.078651,70 0 0 1 368.92188,320 70.078651,70 0 0 1 309.53125,286.94531 c 6.68433,-10.72355 10.54687,-23.38306 10.54687,-36.94531 0,-13.58106 -3.87277,-26.25719 -10.57421,-36.99023 A 70.078651,70 0 0 1 368.92188,180 Z"
     fill="currentcolor"
     id="path7636" />
</svg>
